{"title":"Legend.Quest.S01E02.Excalibur.&amp;.Lost.Cintamani.Stone.HDTV.XviD-t","uid":6554601,"size":368211968,"categoryP":"video","categoryS":"tv_shows","magnet":"?xt=urn:btih:0693dea15f8aef7729eee23c3dec3d065e8a8e48&amp;dn=Legend.Quest.S01E02.Excalibur.%26.Lost.Cintamani.Stone.HDTV.XviD-t&amp;tr=udp%3A%2F%2Ftracker.openbittorrent.com%3A80&amp;tr=udp%3A%2F%2Fopen.demonii.com%3A1337&amp;tr=udp%3A%2F%2Ftracker.coppersurfer.tk%3A6969&amp;tr=udp%3A%2F%2Fexodus.desync.com%3A6969","seeders":0,"leechers":1,"uploader":"trialNerror","files":1,"time":1311234059,"description":"Format                           : AVI\nFormat/Info                      : Audio Video Interleave\nFile size                        : 351 MiB\nDuration                         : 43mn 0s\nOverall bit rate                 : 1 142 Kbps\nWriting application              : VirtualDubMod 1.5.10.2 (build 2542/release)\nWriting library                  : VirtualDubMod build 2542/release\n\nVideo\nID                               : 0\nFormat                           : MPEG-4 Visual\nFormat profile                   : Advanced Simple@L5\nFormat settings, BVOP            : Yes\nFormat settings, QPel            : No\nFormat settings, GMC             : No warppoints\nFormat settings, Matrix          : Default (H.263)\nCodec ID                         : XVID\nCodec ID/Hint                    : XviD\nDuration                         : 43mn 0s\nBit rate                         : 1 000 Kbps\nWidth                            : 624 pixels\nHeight                           : 352 pixels\nDisplay aspect ratio             : 16:9\nFrame rate                       : 29.970 fps\nColor space                      : YUV\nChroma subsampling               : 4:2:0\nBit depth                        : 8 bits\nScan type                        : Progressive\nBits/(Pixel*Frame)               : 0.152\nStream size                      : 308 MiB (88%)\nWriting library                  : XviD 64\n\nAudio\nID                               : 1\nFormat                           : MPEG Audio\nFormat version                   : Version 1\nFormat profile                   : Layer 3\nMode                             : Joint stereo\nCodec ID                         : 55\nCodec ID/Hint                    : MP3\nDuration                         : 43mn 0s\nBit rate mode                    : Variable\nBit rate                         : 128 Kbps\nChannel(s)                       : 2 channels\nSampling rate                    : 48.0 KHz\nStream size                      : 39.2 MiB (11%)\nAlignment                        : Aligned on interleaves\nInterleave, duration             : 24 ms (0.72 video frame)\nInterleave, preload duration     : 545 ms\nWriting library                  : LAME3.98.2","torrent":{"xt":"urn:btih:0693dea15f8aef7729eee23c3dec3d065e8a8e48","amp;dn":"Legend.Quest.S01E02.Excalibur.%26.Lost.Cintamani.Stone.HDTV.XviD-t","amp;tr":["udp%3A%2F%2Ftracker.openbittorrent.com%3A80","udp%3A%2F%2Fopen.demonii.com%3A1337","udp%3A%2F%2Ftracker.coppersurfer.tk%3A6969","udp%3A%2F%2Fexodus.desync.com%3A6969"],"infoHash":"0693dea15f8aef7729eee23c3dec3d065e8a8e48","infoHashBuffer":{"type":"Buffer","data":[6,147,222,161,95,138,239,119,41,238,226,60,61,236,61,6,94,138,142,72]},"announce":[],"urlList":[]}}